<svg width="64" height="64" viewBox="0 0 64 64" xmlns="http://www.w3.org/2000/svg">
  <rect width="64" height="64" rx="16" fill="#075E54"/>
  <path d="M32 14c-9.94 0-18 7.16-18 16 0 4.2 1.8 8.02 4.78 10.94-.32 2.6-1.24 4.9-2.62 6.86a1 1 0 0 0 1.1 1.54c3.3-.86 6.06-2.36 8.2-4.02A21.6 21.6 0 0 0 32 46c9.94 0 18-7.16 18-16s-8.06-16-18-16z" fill="#25D366"/>
  <circle cx="25" cy="30" r="2.4" fill="#075E54"/>
  <circle cx="32" cy="30" r="2.4" fill="#075E54"/>
  <circle cx="39" cy="30" r="2.4" fill="#075E54"/>
</svg>
